#!OML:ASF X:\für Bonn\!DataBase\2005_08_12_Daniel\c3d\Daniel.ASF
:FULLY-SPECIFIED
:DEGREES
202
root 4.37932 17.9624 -1.01415 -176.712 9.25413 546.956
lowerback 8.05877 1.18217 0.230375
upperback 0.134059 1.58323 -1.40809
thorax -4.33477 0.786499 -1.77586
lowerneck -4.6819 8.3497 1.88645
upperneck 6.04209 12.4584 -10.9932
head 3.38998 6.02619 -3.00197
rclavicle -1.13307e-014 5.40694e-014
rhumerus -58.8493 24.5299 -106.926
rradius 102.733
rwrist -1.57436
rhand -24.565 35.1151
rfingers 7.12502
rthumb 1.93174 5.14406
lclavicle -1.13307e-014 5.40694e-014
lhumerus -79.8454 -5.25653 97.3665
lradius 107.927
lwrist 16.903
lhand -7.50387 -13.6913
lfingers 7.12502
lthumb 18.3862 15.4598
rfemur 13.2058 -0.696031 17.7522
rtibia 33.5678
rfoot 6.96301 -10.4085
rtoes -19.7048
lfemur -28.5538 4.80366 -31.805
ltibia 46.1892
lfoot -11.258 -4.34674
ltoes -16.5757
203
root 4.44159 17.9852 -1.3514 -176.582 8.49181 547.342
lowerback 7.75818 1.15842 0.495507
upperback 0.0843409 1.57299 -1.35292
thorax -4.21247 0.77486 -1.85882
lowerneck -4.71719 8.4131 1.82063
upperneck 6.20947 12.5821 -10.9552
head 3.44793 6.08461 -2.96722
rclavicle -6.36111e-015 4.92986e-014
rhumerus -59.2419 24.8817 -107.156
rradius 102.837
rwrist -1.7281
rhand -24.5937 35.0023
rfingers 7.12502
rthumb 1.90401 5.03102
lclavicle -6.36111e-015 4.92986e-014
lhumerus -79.7244 -4.83663 96.7985
lradius 108.269
lwrist 16.7857
lhand -7.87048 -14.0342
lfingers 7.12502
lthumb 18.0335 15.1498
rfemur 13.7975 -1.69586 17.8688
rtibia 34.041
rfoot 6.57127 -10.3436
rtoes -19.5974
lfemur -28.1332 4.74583 -31.5863
ltibia 43.259
lfoot -11.9029 -3.43512
ltoes -18.4948
204
root 4.50409 17.9886 -1.68388 -176.55 7.69511 547.689
lowerback 7.52216 1.10827 0.726867
upperback 0.079559 1.52523 -1.30887
thorax -4.08177 0.746755 -1.93149
lowerneck -4.7051 8.49453 1.84809
upperneck 6.29487 12.7156 -10.9687
head 3.48295 6.15129 -2.96508
rclavicle -1.68967e-014 -3.18055e-015
rhumerus -59.5995 25.1269 -107.391
rradius 102.786
rwrist -1.92734
rhand -24.7296 34.7412
rfingers 7.12502
rthumb 1.7727 4.76881
lclavicle -1.68967e-014 -3.18055e-015
lhumerus -79.3882 -4.3785 96.2584
lradius 108.609
lwrist 16.6467
lhand -8.30058 -13.9821
lfingers 7.12502
lthumb 17.6196 15.2395
rfemur 14.3341 -2.6504 17.9577
rtibia 34.7948
rfoot 5.93142 -10.1226
rtoes -18.8896
lfemur -27.7073 4.6662 -31.4027
ltibia 40.6651
lfoot -12.1919 -2.41956
ltoes -18.8859
205
root 4.56619 17.9778 -2.01203 -176.547 6.91032 548.014
lowerback 7.34453 1.04214 0.930122
upperback 0.0815133 1.45338 -1.26725
thorax -3.97879 0.707545 -1.99021
lowerneck -4.79547 8.56713 1.92864
upperneck 6.42965 12.8511 -11.0596
head 3.55867 6.2131 -2.98717
rclavicle 3.51849e-014 -3.18055e-015
rhumerus -59.8943 25.221 -107.623
rradius 102.512
rwrist -2.06364
rhand -24.9641 34.4752
rfingers 7.12502
rthumb 1.5462 4.50103
lclavicle 3.51849e-014 -3.18055e-015
lhumerus -78.7448 -3.84528 95.6629
lradius 108.875
lwrist 16.5618
lhand -8.56095 -13.6534
lfingers 7.12502
lthumb 17.369 15.5906
rfemur 14.7051 -3.53709 18.0245
rtibia 35.8896
rfoot 5.27558 -9.60443
rtoes -18.7474
lfemur -27.3483 4.6344 -31.264
ltibia 38.4224
lfoot -12.3033 -1.34546
ltoes -17.3774
206
root 4.63064 17.9464 -2.33994 -176.624 6.08688 548.271
lowerback 7.20378 0.948953 1.02188
upperback 0.112507 1.33781 -1.19698
thorax -3.87182 0.649799 -1.95295
lowerneck -4.73606 8.64943 1.82916
upperneck 6.36875 12.9811 -11.0886
head 3.53511 6.28278 -2.97615
rclavicle 2.98177e-015 1.59028e-015
rhumerus -60.2333 25.2176 -107.842
rradius 102.109
rwrist -2.12091
rhand -25.3353 34.0784
rfingers 7.12502
rthumb 1.18769 4.10195
lclavicle 2.98177e-015 1.59028e-015
lhumerus -77.9623 -3.18421 95.1686
lradius 109.176
lwrist 16.4088
lhand -8.82608 -13.1049
lfingers 7.12502
lthumb 17.1138 16.1613
rfemur 14.9703 -4.35271 18.0288
rtibia 37.3418
rfoot 4.69697 -8.94251
rtoes -18.8744
lfemur -26.9857 4.6862 -31.2435
ltibia 36.546
lfoot -12.4087 -0.253554
ltoes -15.1174
207
root 4.69602 17.8939 -2.66539 -176.829 5.22523 548.459
lowerback 7.13828 0.834432 1.05619
upperback 0.216318 1.19199 -1.1514
thorax -3.73357 0.580189 -1.90716
lowerneck -4.77281 8.69839 1.65893
upperneck 6.39289 13.0844 -11.1046
head 3.54608 6.33313 -2.94579
rclavicle 3.77691e-015 1.59028e-015
rhumerus -60.4747 25.0287 -108.024
rradius 101.522
rwrist -2.18814
rhand -25.7138 33.8344
rfingers 7.12502
rthumb 0.822152 3.85622
lclavicle 3.77691e-015 1.59028e-015
lhumerus -77.1868 -2.50533 94.7372
lradius 109.61
lwrist 16.3396
lhand -9.04125 -12.5003
lfingers 7.12502
lthumb 16.9067 16.7838
rfemur 15.1683 -5.16291 17.9359
rtibia 39.1232
rfoot 4.2142 -8.14498
rtoes -19.0568
lfemur -26.5926 4.81571 -31.3434
ltibia 35.1052
lfoot -12.3533 0.705297
ltoes -11.5711
208
root 4.76253 17.8295 -2.98475 -177.141 4.31521 548.556
lowerback 7.24473 0.68888 1.02901
upperback 0.319696 1.00117 -1.15795
thorax -3.69412 0.488902 -1.88014
lowerneck -4.69133 8.74481 1.47415
upperneck 6.27703 13.165 -11.1244
head 3.49295 6.38058 -2.92524
rclavicle -3.97569e-016 -2.22639e-014
rhumerus -60.7102 24.6218 -108.161
rradius 100.956
rwrist -2.15113
rhand -25.966 33.4674
rfingers 7.12502
rthumb 0.578578 3.48847
lclavicle -3.97569e-016 -2.22639e-014
lhumerus -76.5264 -1.85781 94.2902
lradius 110.122
lwrist 16.4562
lhand -9.18833 -12.1111
lfingers 7.12502
lthumb 16.7651 17.1851
rfemur 15.2071 -5.89573 17.7414
rtibia 41.2458
rfoot 3.76319 -7.28235
rtoes -18.9191
lfemur -26.1348 5.00766 -31.6026
ltibia 34.1387
lfoot -12.1924 1.51304
ltoes -6.91505
209
root 4.82722 17.7577 -3.29582 -177.556 3.43222 548.654
lowerback 7.54108 0.523671 1.02335
upperback 0.43308 0.789067 -1.16791
thorax -3.75104 0.386727 -1.86923
lowerneck -4.48175 8.7998 1.18323
upperneck 5.99686 13.2334 -11.094
head 3.35807 6.43157 -2.88596
rclavicle 1.09332e-014 1.27222e-014
rhumerus -60.9504 24.1346 -108.276
rradius 100.365
rwrist -2.17411
rhand -26.1829 33.1318
rfingers 7.12502
rthumb 0.369122 3.15238
lclavicle 1.09332e-014 1.27222e-014
lhumerus -75.7993 -1.1791 93.8371
lradius 110.61
lwrist 16.7093
lhand -9.21267 -11.9351
lfingers 7.12502
lthumb 16.7417 17.363
rfemur 15.0912 -6.58552 17.4737
rtibia 43.6857
rfoot 3.39284 -6.24786
rtoes -18.3223
lfemur -25.6297 5.27264 -31.9249
ltibia 33.7181
lfoot -12.1634 2.36581
ltoes -2.51695
210
root 4.89143 17.6737 -3.59709 -178.028 2.62703 548.726
lowerback 7.97874 0.372543 0.96538
upperback 0.569011 0.59525 -1.16551
thorax -3.86345 0.295542 -1.81832
lowerneck -4.37142 8.85905 0.746501
upperneck 5.52851 13.2752 -10.7103
head 3.47844 6.50033 -3.03407
rclavicle 9.14409e-015 1.59028e-015
rhumerus -61.0006 23.5682 -108.216
rradius 99.6311
rwrist -2.08996
rhand -26.3128 32.8269
rfingers 7.12502
rthumb 0.243667 2.84733
lclavicle 9.14409e-015 1.59028e-015
lhumerus -74.9477 -0.453048 93.4398
lradius 111.065
lwrist 16.9719
lhand -9.12026 -11.8593
lfingers 7.12502
lthumb 16.8307 17.4312
rfemur 14.7586 -7.16573 17.1398
rtibia 46.4299
rfoot 3.17542 -5.29996
rtoes -17.3834
lfemur -25.1609 5.59795 -32.2929
ltibia 33.8417
lfoot -12.4411 3.20773
ltoes 1.40399
211
root 4.95254 17.5752 -3.88731 -178.515 1.88857 548.772
lowerback 8.4833 0.226162 0.945691
upperback 0.714763 0.412137 -1.21574
thorax -4.00131 0.209877 -1.84357
lowerneck -4.2155 8.89875 0.44869
upperneck 5.17528 13.3108 -10.717
head 3.30458 6.53266 -2.99504
rclavicle 1.39149e-015 -3.18055e-015
rhumerus -60.8245 22.7823 -108.144
rradius 98.6637
rwrist -1.77612
rhand -26.4108 32.5848
rfingers 7.12502
rthumb 0.149013 2.60515
lclavicle 1.39149e-015 -3.18055e-015
lhumerus -74.2527 0.153631 93.0533
lradius 111.602
lwrist 17.3785
lhand -9.05721 -12.0555
lfingers 7.12502
lthumb 16.8914 17.2299
rfemur 14.186 -7.6685 16.7007
rtibia 49.4387
rfoot 2.81855 -4.32625
rtoes -17.3691
lfemur -24.81 5.76287 -32.6909
ltibia 34.5129
lfoot -13.0736 4.19211
ltoes 4.77887
212
root 5.01282 17.4624 -4.16935 -179.013 1.25764 548.766
lowerback 9.08049 0.109328 0.860145
upperback 0.838888 0.263256 -1.26595
thorax -4.21209 0.142376 -1.83489
lowerneck -4.12206 8.94814 0.229148
upperneck 4.88724 13.3653 -10.7473
head 3.17582 6.5713 -2.973
rclavicle -4.57205e-015 -3.18055e-014
rhumerus -60.5196 21.8847 -107.901
rradius 97.5229
rwrist -1.4473
rhand -26.4738 32.5642
rfingers 7.12502
rthumb 0.0881077 2.58443
lclavicle -4.57205e-015 -3.18055e-014
lhumerus -73.7716 0.779274 92.8051
lradius 112.253
lwrist 17.7695
lhand -9.07751 -12.3542
lfingers 7.12502
lthumb 16.8718 16.9329
rfemur 13.4236 -8.03248 16.1899
rtibia 52.6549
rfoot 2.09889 -3.55031
rtoes -18.8454
lfemur -24.4733 5.87276 -33.1143
ltibia 35.6293
lfoot -14.2078 5.19243
ltoes 7.19388
213
root 5.06913 17.3356 -4.44751 -179.49 0.659975 548.701
lowerback 9.65148 -0.0106 0.753934
upperback 0.968743 0.107779 -1.33724
thorax -4.40176 0.0730428 -1.83347
lowerneck -4.05256 9.01255 0.0996243
upperneck 4.63421 13.4469 -10.8382
head 3.07889 6.62223 -2.98385
rclavicle -5.96354e-016 1.27222e-014
rhumerus -60.1628 20.9378 -107.55
rradius 96.267
rwrist -1.17729
rhand -26.5294 32.7299
rfingers 7.12502
rthumb 0.0344032 2.75013
lclavicle -5.96354e-016 1.27222e-014
lhumerus -73.1271 1.39428 92.5746
lradius 112.797
lwrist 18.162
lhand -9.08463 -12.5568
lfingers 7.12502
lthumb 16.865 16.7309
rfemur 12.5093 -8.37515 15.5283
rtibia 56.0305
rfoot 1.43938 -3.0934
rtoes -20.0625
lfemur -24.0927 5.80119 -33.5792
ltibia 37.0775
lfoot -15.642 6.27378
ltoes 9.15104
214
root 5.12758 17.2038 -4.72033 -179.975 0.0864499 548.586
lowerback 10.2109 -0.126254 0.512937
upperback 1.15722 -0.0516706 -1.38367
thorax -4.52282 0.00762293 -1.72727
lowerneck -4.02926 9.09711 0.00738892
upperneck 4.29482 13.5542 -11.0279
head 2.97525 6.6871 -3.03211
rclavicle 9.14409e-015 4.92986e-014
rhumerus -59.6132 19.9343 -107.033
rradius 94.7852
rwrist -0.826606
rhand -26.6987 33.0475
rfingers 7.12502
rthumb -0.129079 3.06783
lclavicle 9.14409e-015 4.92986e-014
lhumerus -72.129 1.97376 92.4202
lradius 113.078
lwrist 18.5054
lhand -9.34554 -12.721
lfingers 7.12502
lthumb 16.6138 16.5879
rfemur 11.4437 -8.70134 14.7951
rtibia 59.5091
rfoot 0.822788 -2.94461
rtoes -20.6799
lfemur -23.6882 5.66766 -34.0399
ltibia 38.7592
lfoot -17.1525 7.399
ltoes 10.8711
215
root 5.18598 17.0716 -4.98836 -180.383 -0.448672 548.412
lowerback 10.6963 -0.0222872 0.25874
upperback 1.34206 -0.220411 -1.45947
thorax -4.60436 -0.188157 -1.63062
lowerneck -3.93442 9.14062 -0.0429414
upperneck 3.89688 13.5956 -11.2508
head 2.84132 6.72468 -3.10741
rclavicle -1.59028e-015 -4.6118e-014
rhumerus -58.8271 18.7961 -106.437
rradius 92.9388
rwrist -0.543107
rhand -26.9639 33.4767
rfingers 7.12502
rthumb -0.385257 3.49733
lclavicle -1.59028e-015 -4.6118e-014
lhumerus -70.9263 2.47764 92.2905
lradius 113.165
lwrist 18.7531
lhand -9.72409 -12.7875
lfingers 7.12502
lthumb 16.2493 16.5515
rfemur 10.0862 -9.02618 13.9816
rtibia 63.0668
rfoot 0.405186 -2.94424
rtoes -21.1443
lfemur -23.2731 5.38781 -34.4956
ltibia 40.4986
lfoot -18.7436 8.55307
ltoes 12.2779
216
root 5.2463 16.9506 -5.25202 -180.715 -1.00934 548.173
lowerback 11.1323 -0.0738145 -0.15276
upperback 1.50464 -0.364595 -1.53137
thorax -4.67957 -0.261591 -1.45156
lowerneck -3.9113 9.96682 -0.138459
upperneck 3.78572 13.4934 -11.3957
head 2.79574 6.22319 -3.17132
rclavicle 4.57205e-015 -1.74931e-014
rhumerus -58.0256 17.5584 -105.769
rradius 90.8925
rwrist -0.307767
rhand -27.3737 33.9099
rfingers 7.12502
rthumb -0.780998 3.93157
lclavicle 4.57205e-015 -1.74931e-014
lhumerus -69.6921 2.98337 92.2608
lradius 113.215
lwrist 18.7788
lhand -10.3777 -12.6805
lfingers 7.12502
lthumb 15.6199 16.7089
rfemur 8.4755 -9.36874 13.1355
rtibia 66.6099
rfoot 0.123395 -3.10025
rtoes -20.6881
lfemur -22.8655 5.1474 -34.954
ltibia 42.1963
lfoot -20.3359 9.46474
ltoes 12.9824
